<svg xmlns="http://www.w3.org/2000/svg" viewBox="0 0 522 478" version="1.1">
	<path d="M 261 90.168 C 259.075 91.357, 246.025 98.943, 232 107.027 C 217.975 115.110, 200.875 124.985, 194 128.970 C 187.125 132.955, 179.098 137.582, 176.163 139.252 C 166.697 144.639, 167.524 147.715, 180.221 154.346 C 185.324 157.012, 194.582 161.890, 200.793 165.186 L 212.086 171.180 218.793 166.291 C 222.482 163.601, 225.427 161.013, 225.339 160.540 C 225.250 160.066, 222.325 158.127, 218.839 156.232 C 202.257 147.215, 199.864 145.741, 200.653 145.032 C 201.119 144.613, 216.264 135.858, 234.308 125.576 L 267.116 106.883 274.308 110.801 C 278.264 112.957, 285.550 116.908, 290.500 119.582 C 295.450 122.256, 307.080 128.540, 316.344 133.547 C 325.609 138.554, 333.189 143.031, 333.190 143.497 C 333.192 143.963, 327.862 147.342, 321.346 151.006 C 314.831 154.669, 300.725 162.738, 290 168.935 C 271.474 179.641, 270.237 180.196, 265.228 180.050 C 256.351 179.790, 250.948 185.873, 252.536 194.340 C 254.429 204.433, 270.715 207.505, 274.800 198.539 C 275.731 196.496, 279.675 194.067, 303 181.170 C 305.475 179.802, 309.179 177.629, 311.230 176.341 C 313.282 175.053, 315.106 174, 315.284 174 C 315.787 174, 351.788 153.554, 358.314 149.563 C 363.608 146.325, 364.099 145.730, 363.814 142.898 C 363.567 140.457, 362.640 139.309, 359.500 137.558 C 354.844 134.962, 331.879 122.549, 321 116.747 C 316.875 114.547, 309.675 110.609, 305 107.996 C 279.176 93.561, 268.497 88, 266.609 88.004 C 265.449 88.006, 262.925 88.980, 261 90.168 M 262.502 134.575 C 256.298 137.810, 253.009 142.520, 252.987 148.200 C 252.973 151.902, 252.431 152.345, 224.474 171.500 C 216.446 177, 207.093 183.535, 203.689 186.022 L 197.500 190.544 197.231 212.772 C 197.083 224.997, 196.715 235, 196.413 235 C 196.111 235, 189.257 231.456, 181.182 227.125 C 173.107 222.794, 163.688 217.798, 160.250 216.024 L 154 212.797 154 202.386 L 154 191.975 159.250 188.655 C 171.332 181.014, 170.054 181.328, 176.937 184.313 L 183.039 186.960 187.072 183.316 C 192.623 178.301, 193.752 176.022, 191.389 174.603 C 182.837 169.470, 172.138 164.055, 170.500 164.031 C 169.400 164.015, 164.721 166.250, 160.102 168.998 C 155.482 171.746, 148.851 175.589, 145.364 177.539 C 141.878 179.488, 138.570 181.935, 138.013 182.976 C 137.437 184.052, 137 192.614, 137 202.823 C 137 218.495, 137.223 221.033, 138.750 222.777 C 139.713 223.876, 147.250 228.260, 155.500 232.520 C 163.750 236.779, 173.313 241.779, 176.750 243.632 C 180.188 245.484, 186.037 248.633, 189.750 250.629 C 193.463 252.625, 198.525 255.725, 201 257.518 C 211.363 265.024, 223.916 273, 225.369 273 C 228.190 273, 228.933 269.816, 227.479 263.967 C 224.912 253.644, 221.558 246.329, 217.250 241.655 L 213 237.045 213 218.215 L 213 199.385 217.750 196.030 C 220.363 194.185, 226.550 189.884, 231.500 186.471 C 236.450 183.059, 245.415 176.873, 251.422 172.724 C 260.795 166.249, 262.682 165.309, 264.737 166.090 C 274.565 169.827, 287 160.989, 287 150.268 C 287 143.618, 284.759 139.438, 279.361 136.014 C 273.900 132.551, 267.442 132, 262.502 134.575 M 352.750 167.737 C 344.629 171.550, 343.325 173.275, 347.511 174.670 C 349.827 175.442, 349.302 175.905, 340.761 180.622 C 332.409 185.234, 318.871 192.826, 279.574 214.931 C 272.465 218.930, 265.906 222.666, 264.998 223.233 C 263.701 224.043, 259.125 222.081, 243.659 214.082 C 232.830 208.482, 223.527 204.174, 222.985 204.509 C 221.706 205.300, 221.704 218.578, 222.982 220.966 C 223.522 221.975, 227.910 224.807, 232.732 227.259 C 237.554 229.710, 245.881 234.030, 251.236 236.858 C 262.014 242.550, 264.849 243.002, 270 239.851 C 271.925 238.674, 286.550 230.414, 302.500 221.496 C 318.450 212.578, 337.120 202.053, 343.989 198.107 C 350.857 194.161, 356.632 191.397, 356.822 191.966 C 357.012 192.535, 357.706 193, 358.365 193 C 359.806 193, 385.367 176.232, 385.812 174.995 C 385.984 174.518, 385.052 173.425, 383.743 172.567 C 380.619 170.520, 363.943 163.986, 362.007 164.050 C 361.178 164.077, 357.012 165.736, 352.750 167.737 M 369 200.608 C 366.525 202.029, 362.700 204.206, 360.500 205.447 C 351.353 210.603, 331.971 221.515, 308 235.003 C 293.975 242.895, 280.559 250.452, 278.186 251.797 C 273.989 254.176, 273.728 254.201, 268.552 252.729 C 264.607 251.607, 261.980 251.449, 258.397 252.118 C 254.134 252.915, 252.922 252.707, 248.129 250.362 C 241.880 247.305, 241.006 247.564, 236.614 253.770 C 233.072 258.774, 233.503 260.097, 239.964 264.073 C 244.182 266.668, 245 267.653, 245 270.135 C 245 278.316, 253.450 286, 262.448 286 C 270.534 286, 280 278.689, 280 272.444 C 280 270.553, 283.115 268.449, 299.250 259.441 C 309.837 253.530, 320.644 247.412, 323.265 245.847 C 325.886 244.281, 328.191 243, 328.389 243 C 328.586 243, 333.811 240.075, 340 236.500 C 346.189 232.925, 351.430 230, 351.646 230 C 351.863 230, 353.718 228.946, 355.770 227.658 C 357.821 226.369, 362.200 223.839, 365.500 222.035 C 388.952 209.216, 391.320 207.336, 389.143 203.267 C 388.067 201.256, 379.882 197.981, 376 198.007 C 374.625 198.016, 371.475 199.187, 369 200.608 M 357.561 242.328 C 350.587 246.208, 349.993 247.220, 353.702 248.910 C 356.318 250.102, 356.357 250.217, 354.478 251.197 C 351.971 252.505, 341.956 258.294, 331 264.769 C 326.325 267.532, 320.925 270.682, 319 271.770 C 317.075 272.858, 307.625 278.351, 298 283.976 C 288.375 289.600, 278.679 295.248, 276.452 296.525 C 273.023 298.492, 271.479 298.763, 266.348 298.298 C 262.780 297.974, 258.797 298.242, 256.654 298.949 C 253.238 300.077, 252.577 299.910, 245.759 296.195 C 241.766 294.020, 234 289.862, 228.500 286.956 C 223 284.049, 217.150 280.916, 215.499 279.993 C 213.849 279.069, 205.749 274.802, 197.499 270.510 C 189.250 266.217, 180.025 261.367, 177 259.731 C 173.975 258.096, 166.325 254.046, 160 250.731 C 153.675 247.417, 148.073 244.321, 147.550 243.852 C 145.653 242.150, 139.128 242.892, 138.035 244.934 C 137.398 246.125, 137 256.825, 137 272.760 C 137 303.500, 134.834 299.280, 156.500 310.763 C 173.179 319.603, 184.498 325.638, 193.500 330.491 C 199.351 333.646, 207.533 338.021, 222.250 345.864 C 232.846 351.510, 243.341 357.120, 253.135 362.370 C 257.885 364.917, 262.683 367, 263.797 367 C 264.912 367, 270.926 363.926, 277.162 360.168 C 283.398 356.410, 292.692 350.898, 297.815 347.918 C 302.938 344.938, 308.348 341.779, 309.838 340.897 C 321.084 334.241, 349.881 317.319, 361 310.832 C 368.425 306.500, 375.288 302.016, 376.250 300.867 C 378.081 298.681, 378.756 285.032, 377.375 278.125 C 376.565 274.073, 375.117 274.157, 367.338 278.708 C 361.193 282.302, 361 282.540, 361 286.500 L 361 290.585 350.750 296.691 C 334.590 306.317, 280.348 338.211, 271.316 343.399 L 263.131 348.099 254.316 343.416 C 234.881 333.090, 230.375 330.669, 227.500 329.008 C 224.523 327.287, 217.649 323.628, 196.500 312.505 C 190.450 309.323, 178.412 302.928, 169.750 298.293 L 154 289.867 154 278.382 L 154 266.898 167.750 274.103 C 175.313 278.066, 185.325 283.318, 190 285.774 C 245.063 314.700, 246 315.226, 246 317.154 C 246 323.525, 253.511 330.129, 261.511 330.792 C 271.305 331.605, 278.805 326.039, 280.542 316.670 C 280.933 314.563, 281.983 312.561, 282.876 312.219 C 283.769 311.877, 295.975 304.881, 310 296.673 C 324.025 288.465, 336.925 280.935, 338.668 279.938 C 340.410 278.942, 346.391 275.359, 351.960 271.976 C 360.305 266.906, 362.345 266.042, 363.571 267.059 C 364.779 268.062, 365.475 267.911, 367.279 266.253 C 368.501 265.131, 374.113 261.206, 379.750 257.532 C 394.789 247.729, 394.020 244.762, 375.500 241.146 C 362.220 238.553, 364.631 238.394, 357.561 242.328" stroke="none" fill="#e6e6e6" fill-rule="evenodd"/>
</svg>